# Blender v2.82 (sub 7) OBJ File: ''
# www.blender.org
mtllib untitled.mtl
o cube
v 0.062500 -0.203080 0.553507
v 0.062500 -0.318565 0.601342
v 0.062500 -0.442258 -0.023918
v 0.062500 -0.557742 0.023918
v -0.062500 -0.442258 -0.023918
v -0.062500 -0.557742 0.023918
v -0.062500 -0.203080 0.553507
v -0.062500 -0.318565 0.601342
vt 0.562500 0.625000
vt 0.437500 0.625000
vt 0.562500 0.000000
vt 0.437500 0.000000
vt 0.437500 0.000000
vt 0.562500 0.000000
vt 0.437500 0.625000
vt 0.562500 0.625000
vt 0.562500 0.000000
vt 0.562500 0.625000
vt 0.437500 0.000000
vt 0.437500 0.625000
vt 0.437500 0.625000
vt 0.437500 0.000000
vt 0.562500 0.625000
vt 0.562500 0.000000
vt 0.437500 0.500000
vt 0.562500 0.500000
vt 0.562500 0.125000
vt 0.437500 0.125000
vn 1.0000 0.0000 0.0000
vn -1.0000 0.0000 0.0000
vn 0.0000 0.9239 -0.3827
vn 0.0000 -0.9239 0.3827
vn 0.0000 0.3827 0.9239
vn 0.0000 -0.3827 -0.9239
usemtl m_0
s 1
f 1/1/1 2/2/1 3/3/1
f 2/2/1 4/4/1 3/3/1
f 5/5/2 6/6/2 7/7/2
f 6/6/2 8/8/2 7/7/2
f 5/9/3 7/10/3 3/11/3
f 7/10/3 1/12/3 3/11/3
f 8/13/4 6/14/4 2/15/4
f 6/14/4 4/16/4 2/15/4
f 7/7/5 8/17/5 1/1/5
f 8/17/5 2/18/5 1/1/5
f 3/3/6 4/19/6 5/5/6
f 4/19/6 6/20/6 5/5/6
